HIERARCHY
ROOT Root
{
  OFFSET 0.0 0.0 0.0
  CHANNELS 6 Xposition Yposition Zposition Zrotation Yrotation Xrotation
  JOINT Hips
  {
    OFFSET 0.0 100.0 0.0
    CHANNELS 6 Xposition Yposition Zposition Zrotation Yrotation Xrotation
    JOINT Spine1
    {
      OFFSET 5.003913 -0.037094 -0.013727
      CHANNELS 3 Zrotation Yrotation Xrotation
      JOINT Spine2
      {
        OFFSET 7.125363 -1e-06 0.0
        CHANNELS 3 Zrotation Yrotation Xrotation
        JOINT Chest
        {
          OFFSET 7.594027 1e-06 0.0
          CHANNELS 3 Zrotation Yrotation Xrotation
          JOINT Neck1
          {
            OFFSET 26.313086 -0.460272 -0.181672
            CHANNELS 3 Zrotation Yrotation Xrotation
            JOINT Neck2
            {
              OFFSET 8.045911 0.0 0.0
              CHANNELS 3 Zrotation Yrotation Xrotation
              JOINT Head
              {
                OFFSET 6.432774 0.0 0.0
                CHANNELS 3 Zrotation Yrotation Xrotation
                JOINT HeadEnd
                {
                  OFFSET 16.169773 0.06451 0.00362
                  CHANNELS 3 Zrotation Yrotation Xrotation
                }
                JOINT Jaw
                {
                  OFFSET 0.108741 3.12938 0.002639
                  CHANNELS 3 Zrotation Yrotation Xrotation
                }
                JOINT LeftEye
                {
                  OFFSET 4.45173 8.166359 3.206392
                  CHANNELS 3 Zrotation Yrotation Xrotation
                }
                JOINT RightEye
                {
                  OFFSET 4.436895 8.135758 -3.222429
                  CHANNELS 3 Zrotation Yrotation Xrotation
                }
              }
            }
          }
          JOINT LeftShoulder
          {
            OFFSET 23.218927 5.195579 1.621656
            CHANNELS 3 Zrotation Yrotation Xrotation
            JOINT LeftArm
            {
              OFFSET 15.902118 2e-06 -2e-06
              CHANNELS 3 Zrotation Yrotation Xrotation
              JOINT LeftForeArm
              {
                OFFSET 28.739307 0.0 -1e-06
                CHANNELS 3 Zrotation Yrotation Xrotation
                JOINT LeftHand
                {
                  OFFSET 27.093981 -4e-06 0.0
                  CHANNELS 3 Zrotation Yrotation Xrotation
                  JOINT LeftHandThumb1
                  {
                    OFFSET 2.276781 3.380274 0.83384
                    CHANNELS 3 Zrotation Yrotation Xrotation
                    JOINT LeftHandThumb2
                    {
                      OFFSET 4.705309 -1e-06 -1e-06
                      CHANNELS 3 Zrotation Yrotation Xrotation
                      JOINT LeftHandThumb3
                      {
                        OFFSET 2.798515 0.0 3e-06
                        CHANNELS 3 Zrotation Yrotation Xrotation
                        JOINT LeftHandThumbEnd
                        {
                          OFFSET 3.180793 4e-06 -4e-06
                          CHANNELS 3 Zrotation Yrotation Xrotation
                        }
                      }
                    }
                  }
                  JOINT LeftHandIndex1
                  {
                    OFFSET 3.247786 2.352677 0.137192
                    CHANNELS 3 Zrotation Yrotation Xrotation
                    JOINT LeftHandIndex2
                    {
                      OFFSET 6.367095 1e-06 0.0
                      CHANNELS 3 Zrotation Yrotation Xrotation
                      JOINT LeftHandIndex3
                      {
                        OFFSET 3.662364 0.0 0.0
                        CHANNELS 3 Zrotation Yrotation Xrotation
                        JOINT LeftHandIndex4
                        {
                          OFFSET 2.329242 4e-06 -4e-06
                          CHANNELS 3 Zrotation Yrotation Xrotation
                          JOINT LeftHandIndexEnd
                          {
                            OFFSET 2.767823 1e-06 0.0
                            CHANNELS 3 Zrotation Yrotation Xrotation
                          }
                        }
                      }
                    }
                  }
                  JOINT LeftHandMiddle1
                  {
                    OFFSET 3.163612 0.945023 -0.406112
                    CHANNELS 3 Zrotation Yrotation Xrotation
                    JOINT LeftHandMiddle2
                    {
                      OFFSET 6.276789 3e-06 0.0
                      CHANNELS 3 Zrotation Yrotation Xrotation
                      JOINT LeftHandMiddle3
                      {
                        OFFSET 4.35652 -1e-06 4e-06
                        CHANNELS 3 Zrotation Yrotation Xrotation
                        JOINT LeftHandMiddle4
                        {
                          OFFSET 2.996877 0.0 8e-06
                          CHANNELS 3 Zrotation Yrotation Xrotation
                          JOINT LeftHandMiddleEnd
                          {
                            OFFSET 2.323256 3e-06 -4e-06
                            CHANNELS 3 Zrotation Yrotation Xrotation
                          }
                        }
                      }
                    }
                  }
                  JOINT LeftHandRing1
                  {
                    OFFSET 2.882606 -0.309162 0.107445
                    CHANNELS 3 Zrotation Yrotation Xrotation
                    JOINT LeftHandRing2
                    {
                      OFFSET 6.033198 0.0 4e-06
                      CHANNELS 3 Zrotation Yrotation Xrotation
                      JOINT LeftHandRing3
                      {
                        OFFSET 4.350578 3e-06 0.0
                        CHANNELS 3 Zrotation Yrotation Xrotation
                        JOINT LeftHandRing4
                        {
                          OFFSET 2.651321 2e-06 -7e-06
                          CHANNELS 3 Zrotation Yrotation Xrotation
                          JOINT LeftHandRingEnd
                          {
                            OFFSET 1.937663 1e-06 -4e-06
                            CHANNELS 3 Zrotation Yrotation Xrotation
                          }
                        }
                      }
                    }
                  }
                  JOINT LeftHandPinky1
                  {
                    OFFSET 2.865315 -1.525436 0.575687
                    CHANNELS 3 Zrotation Yrotation Xrotation
                    JOINT LeftHandPinky2
                    {
                      OFFSET 5.54936 1e-06 -8e-06
                      CHANNELS 3 Zrotation Yrotation Xrotation
                      JOINT LeftHandPinky3
                      {
                        OFFSET 3.070974 0.0 -4e-06
                        CHANNELS 3 Zrotation Yrotation Xrotation
                        JOINT LeftHandPinky4
                        {
                          OFFSET 1.549672 1e-06 0.0
                          CHANNELS 3 Zrotation Yrotation Xrotation
                          JOINT LeftHandPinkyEnd
                          {
                            OFFSET 1.952123 0.0 0.0
                            CHANNELS 3 Zrotation Yrotation Xrotation
                          }
                        }
                      }
                    }
                  }
                }
              }
            }
          }
          JOINT RightShoulder
          {
            OFFSET 23.161716 5.296122 -1.380114
            CHANNELS 3 Zrotation Yrotation Xrotation
            JOINT RightArm
            {
              OFFSET -16.027195 -2e-06 1.1e-05
              CHANNELS 3 Zrotation Yrotation Xrotation
              JOINT RightForeArm
              {
                OFFSET -28.736639 4e-06 2e-06
                CHANNELS 3 Zrotation Yrotation Xrotation
                JOINT RightHand
                {
                  OFFSET -27.133619 6e-06 0.0
                  CHANNELS 3 Zrotation Yrotation Xrotation
                  JOINT RightHandThumb1
                  {
                    OFFSET -2.274328 -3.351035 -0.83067
                    CHANNELS 3 Zrotation Yrotation Xrotation
                    JOINT RightHandThumb2
                    {
                      OFFSET -4.703594 -3e-06 2e-06
                      CHANNELS 3 Zrotation Yrotation Xrotation
                      JOINT RightHandThumb3
                      {
                        OFFSET -2.794935 -4e-06 -3e-06
                        CHANNELS 3 Zrotation Yrotation Xrotation
                        JOINT RightHandThumbEnd
                        {
                          OFFSET -3.183852 4e-06 1e-06
                          CHANNELS 3 Zrotation Yrotation Xrotation
                        }
                      }
                    }
                  }
                  JOINT RightHandIndex1
                  {
                    OFFSET -3.253496 -2.33755 -0.127667
                    CHANNELS 3 Zrotation Yrotation Xrotation
                    JOINT RightHandIndex2
                    {
                      OFFSET -6.344434 0.0 0.0
                      CHANNELS 3 Zrotation Yrotation Xrotation
                      JOINT RightHandIndex3
                      {
                        OFFSET -3.654871 0.0 -8e-06
                        CHANNELS 3 Zrotation Yrotation Xrotation
                        JOINT RightHandIndex4
                        {
                          OFFSET -2.327586 -1e-06 0.0
                          CHANNELS 3 Zrotation Yrotation Xrotation
                          JOINT RightHandIndexEnd
                          {
                            OFFSET -2.770001 3e-06 8e-06
                            CHANNELS 3 Zrotation Yrotation Xrotation
                          }
                        }
                      }
                    }
                  }
                  JOINT RightHandMiddle1
                  {
                    OFFSET -3.168223 -0.944764 0.411762
                    CHANNELS 3 Zrotation Yrotation Xrotation
                    JOINT RightHandMiddle2
                    {
                      OFFSET -6.266691 -1e-06 -4e-06
                      CHANNELS 3 Zrotation Yrotation Xrotation
                      JOINT RightHandMiddle3
                      {
                        OFFSET -4.348901 0.0 0.0
                        CHANNELS 3 Zrotation Yrotation Xrotation
                        JOINT RightHandMiddle4
                        {
                          OFFSET -3.00024 2e-06 -4e-06
                          CHANNELS 3 Zrotation Yrotation Xrotation
                          JOINT RightHandMiddleEnd
                          {
                            OFFSET -2.321477 -4e-06 -4e-06
                            CHANNELS 3 Zrotation Yrotation Xrotation
                          }
                        }
                      }
                    }
                  }
                  JOINT RightHandRing1
                  {
                    OFFSET -2.885654 0.293261 -0.119232
                    CHANNELS 3 Zrotation Yrotation Xrotation
                    JOINT RightHandRing2
                    {
                      OFFSET -6.032835 -1e-06 -4e-06
                      CHANNELS 3 Zrotation Yrotation Xrotation
                      JOINT RightHandRing3
                      {
                        OFFSET -4.33881 0.0 -4e-06
                        CHANNELS 3 Zrotation Yrotation Xrotation
                        JOINT RightHandRing4
                        {
                          OFFSET -2.654903 -4e-06 -4e-06
                          CHANNELS 3 Zrotation Yrotation Xrotation
                          JOINT RightHandRingEnd
                          {
                            OFFSET -1.935122 0.0 4e-06
                            CHANNELS 3 Zrotation Yrotation Xrotation
                          }
                        }
                      }
                    }
                  }
                  JOINT RightHandPinky1
                  {
                    OFFSET -2.866241 1.503904 -0.60527
                    CHANNELS 3 Zrotation Yrotation Xrotation
                    JOINT RightHandPinky2
                    {
                      OFFSET -5.553177 -2e-06 0.0
                      CHANNELS 3 Zrotation Yrotation Xrotation
                      JOINT RightHandPinky3
                      {
                        OFFSET -3.062664 -1e-06 -4e-06
                        CHANNELS 3 Zrotation Yrotation Xrotation
                        JOINT RightHandPinky4
                        {
                          OFFSET -1.546529 2e-06 4e-06
                          CHANNELS 3 Zrotation Yrotation Xrotation
                          JOINT RightHandPinkyEnd
                          {
                            OFFSET -1.952341 0.0 -4e-06
                            CHANNELS 3 Zrotation Yrotation Xrotation
                          }
                        }
                      }
                    }
                  }
                }
              }
            }
          }
        }
      }
    }
    JOINT LeftLeg
    {
      OFFSET -8.443107 2.567604 10.043214
      CHANNELS 3 Zrotation Yrotation Xrotation
      JOINT LeftShin
      {
        OFFSET 43.229198 1e-06 -1e-06
        CHANNELS 3 Zrotation Yrotation Xrotation
        JOINT LeftFoot
        {
          OFFSET 42.298611 1e-06 1e-06
          CHANNELS 3 Zrotation Yrotation Xrotation
          JOINT LeftToeBase
          {
            OFFSET 14.165858 1e-06 0.0
            CHANNELS 3 Zrotation Yrotation Xrotation
            JOINT LeftToeEnd
            {
              OFFSET 6.7141 -0.234461 0.0
              CHANNELS 3 Zrotation Yrotation Xrotation
            }
          }
        }
      }
    }
    JOINT RightLeg
    {
      OFFSET -8.303923 2.592729 -10.047278
      CHANNELS 3 Zrotation Yrotation Xrotation
      JOINT RightShin
      {
        OFFSET -43.369682 0.0 1e-06
        CHANNELS 3 Zrotation Yrotation Xrotation
        JOINT RightFoot
        {
          OFFSET -42.260784 4e-06 2e-06
          CHANNELS 3 Zrotation Yrotation Xrotation
          JOINT RightToeBase
          {
            OFFSET -14.222245 -2e-06 -1e-06
            CHANNELS 3 Zrotation Yrotation Xrotation
            JOINT RightToeEnd
            {
              OFFSET -6.660062 0.232574 -2e-06
              CHANNELS 3 Zrotation Yrotation Xrotation
            }
          }
        }
      }
    }
  }
}
MOTION
Frames: 4
Frame Time: 0.03333333333333333
0.0 0.0 0.0 0.0 -0.0 0.0 -1.142934 99.84021 4.634644 89.332298 0.857726 89.847145 -2.246675 0.978487 -0.097058 -11.514726 -0.474548 -0.43227 18.722839 -0.897302 -2.334747 22.990482 -2.181782 2.627843 -2.648959 -0.357344 0.387453 -33.170662 1.347764 -0.392902 0.0 -0.0 0.0 6e-06 -0.003498 0.003342 0.089958 -0.011398 -9e-05 0.06904 0.003766 0.019903 -126.454613 -68.990883 142.900345 34.429337 -57.767445 4.957001 26.71176 0.582311 -0.095229 1.212432 3.470814 8.940681 17.647055 -26.302221 52.407082 -19.472904 -14.385313 29.366894 -0.003281 -8.777815 0.022441 15.898305 -18.224442 6.184981 -0.597578 -1.797054 -3.877151 -4.808701 -11.049555 -2.933176 0.014894 -20.987692 -0.017926 -5.016314 -25.042616 -4.015252 0.001201 -0.007843 -0.001614 -10.627478 -5.680158 -3.553411 10.578487 -17.939655 -3.10429 -0.001478 -13.814896 -0.006797 -0.489461 -31.202135 -4.016988 -11.633768 -59.936638 7.583301 -13.980954 -7.137351 -2.850883 13.776998 -8.409763 -3.229352 0.385416 -34.207325 0.746025 -0.944967 -17.741673 2.630968 -0.00459 -0.004132 0.001878 -17.343473 -20.094585 -4.188026 21.754122 -1.63695 3.854524 0.003935 -6.349786 0.007435 -1.683989 -22.590408 -6.212904 -0.003442 0.00578 0.003632 40.975098 -67.596909 159.578598 42.147163 -48.820263 8.531477 23.350342 -0.010823 0.018363 -7.46275 -1.133702 -4.228564 22.179544 -20.391188 50.004162 -16.704262 -16.740528 28.501371 -0.001069 -12.693264 0.01108 16.020008 -17.910721 2.901169 -0.105184 -1.515914 -4.275618 -5.040993 -5.615847 -2.950983 -0.002521 -11.028147 0.002389 -6.116531 -15.912075 -3.844159 -0.002161 -0.001137 0.000372 -10.279787 -5.676297 -4.327991 11.025533 -11.30284 -2.368298 -1.380749 -14.235711 -6.323007 -0.624951 -26.944809 -3.826076 -4.241644 -50.660664 -3.483438 -13.706015 -7.364969 -3.720582 18.137505 -14.051077 -3.232269 0.002538 -18.800066 -0.00932 -0.423523 -8.44817 2.556647 0.001153 -0.001617 -0.008961 -15.921253 -20.099552 -5.473756 30.415058 -7.192165 1.735552 -0.00366 -8.159414 -0.004637 -1.853195 -22.861561 -6.17055 0.001363 0.006352 0.005642 -177.026917 -6.201652 -15.417472 10.210943 -0.006962 0.464581 -80.627136 4.093004 -6.104692 -8.962058 1.463429 1.998162 -0.995788 -0.001141 -0.000745 4.538001 -4.658947 -3.472638 5.962801 0.058331 0.024483 -77.795845 -4.597699 -3.263561 -10.881108 0.68852 1.551671 -0.996242 0.000779 0.000751 
0.0 0.0 0.0 0.0 -0.0 0.0 -1.031197 99.863556 5.08344 89.291283 0.804206 89.804626 -2.174693 1.011407 -0.085954 -11.543383 -0.430458 -0.377999 18.73546 -0.894849 -2.37691 22.902584 -2.169764 2.609514 -2.619049 -0.362456 0.402546 -33.221992 1.3459 -0.362709 0.002106 -0.000186 5.6e-05 -0.00497 0.004786 0.028681 0.088454 -0.005256 0.029137 0.06758 0.012021 0.03561 -126.185135 -69.068771 142.63385 34.463581 -57.937912 4.756979 27.017284 0.491441 -0.121824 1.198592 3.395951 9.284698 17.633286 -26.336645 52.451427 -19.505314 -14.405681 29.432772 -0.005525 -8.777454 0.007661 15.910323 -18.218052 6.228052 -0.599776 -1.787246 -3.885245 -4.802461 -11.052071 -2.942229 0.009185 -21.00078 0.013111 -4.990282 -25.060732 -4.048715 0.005867 -0.006946 -0.000463 -10.626472 -5.677611 -3.556509 10.577371 -17.924494 -3.12774 0.000668 -13.832364 0.00952 -0.51507 -31.192043 -4.036315 -11.630342 -60.077492 7.612803 -13.972281 -7.134803 -2.868538 13.774185 -8.409006 -3.228011 0.364106 -34.239433 0.74772 -0.968903 -17.759912 2.643696 -0.009884 -0.004234 0.008378 -17.335403 -20.08679 -4.204637 21.771461 -1.658697 3.861945 0.002275 -6.336458 0.007698 -1.686968 -22.595976 -6.191394 -0.00313 0.007237 0.0053 41.481544 -67.79261 159.287811 42.348812 -48.951611 8.162606 23.593733 0.074424 0.070655 -7.453032 -1.138966 -4.262059 22.211952 -20.425039 50.088264 -16.733868 -16.776192 28.566298 2.6e-05 -12.709913 -0.015723 16.080967 -17.897919 2.88725 -0.108416 -1.516887 -4.280995 -5.04407 -5.618555 -2.964175 0.00057 -11.023663 -0.006249 -6.113468 -15.918139 -3.849997 0.0 -0.0 0.0 -10.299189 -5.689207 -4.356669 11.045116 -11.315199 -2.374974 -1.375977 -14.274846 -6.332206 -0.609886 -26.981058 -3.848309 -4.097484 -50.748508 -3.529629 -13.730366 -7.37611 -3.730704 18.170193 -14.06618 -3.246634 0.005893 -18.811079 -0.006217 -0.433698 -8.468786 2.558699 0.005976 0.003434 0.0 -15.941202 -20.126648 -5.489478 30.478479 -7.203634 1.726604 0.002431 -8.186665 0.004677 -1.865978 -22.903967 -6.18356 0.0108 -0.005623 -0.003783 -176.364838 -6.034142 -15.399852 9.121695 0.009781 0.437546 -80.262825 3.894138 -5.993249 -9.079323 1.471054 1.984555 -0.996132 0.005321 0.001482 4.430532 -4.673468 -3.343729 6.295308 0.040779 -0.003918 -77.814209 -4.586987 -3.326423 -11.126418 0.692667 1.541724 -0.999529 0.001432 0.001101 
0.0 0.0 0.0 0.0 -0.0 0.0 -0.917054 99.877075 5.255297 89.224236 0.734972 89.764229 -2.096931 1.064527 -0.059846 -11.554447 -0.419382 -0.367873 18.734625 -0.868336 -2.389056 22.829403 -2.154834 2.628168 -2.588196 -0.368896 0.407514 -33.377552 1.367198 -0.290444 0.000768 -0.000261 -0.000325 0.007507 0.007342 0.032569 0.087191 -0.010158 0.035762 0.076577 0.023269 0.040776 -125.820213 -69.056351 142.290604 34.399998 -58.136261 4.641517 27.509176 0.463856 -0.0787 1.131974 3.26032 9.550223 17.691395 -26.40855 52.59827 -19.505646 -14.427419 29.484848 0.000197 -8.797996 0.002599 16.026823 -18.247011 6.179308 -0.594466 -1.786806 -3.883396 -4.815983 -11.071769 -2.948698 -0.000443 -21.032429 0.007382 -5.048253 -25.06638 -4.039157 0.000749 -0.010747 0.004897 -10.636145 -5.683848 -3.554042 10.597216 -17.960291 -3.128708 0.001204 -13.847266 0.011138 -0.493967 -31.245934 -4.014991 -11.779675 -60.366421 7.806768 -13.995846 -7.150993 -2.881656 13.791402 -8.419441 -3.196311 0.373561 -34.30196 0.751583 -0.996161 -17.790091 2.644983 0.00945 0.011936 0.002723 -17.367407 -20.116817 -4.196134 21.799807 -1.650889 3.875623 0.003517 -6.351614 -0.01123 -1.668814 -22.618681 -6.204463 -0.000914 0.005956 -0.002546 41.675724 -67.816544 159.104797 42.395805 -48.952099 8.057945 23.904657 0.183995 0.058158 -7.36594 -1.148771 -4.3848 22.243877 -20.446299 50.062347 -16.722782 -16.775837 28.524858 0.002362 -12.719357 0.006041 16.152437 -17.911451 2.826224 -0.107782 -1.515624 -4.299936 -5.047826 -5.622636 -2.937167 0.002574 -11.038353 -0.002856 -6.109385 -15.911175 -3.842603 -0.002457 -0.003181 -0.006236 -10.299362 -5.68951 -4.356215 11.045503 -11.327143 -2.382262 -1.383515 -14.266945 -6.32848 -0.619488 -26.983669 -3.832259 -4.046844 -50.686798 -3.577034 -13.731347 -7.373817 -3.739627 18.166861 -14.068308 -3.24496 0.000391 -18.812965 0.000472 -0.43181 -8.47023 2.576669 -0.001031 -0.001719 0.002565 -15.943774 -20.13456 -5.498796 30.468054 -7.214427 1.741037 -0.010699 -8.168208 0.005369 -1.843174 -22.925587 -6.178868 -0.002684 -0.000252 -0.007138 -176.279037 -6.013336 -15.335083 9.023789 0.015589 0.430528 -80.291138 3.774981 -5.875134 -9.184101 1.480877 1.983883 -0.995635 -0.002221 0.000136 4.407956 -4.668003 -3.199504 6.559664 0.028802 -0.044313 -77.742905 -4.548563 -3.313601 -11.254849 0.689156 1.532653 -0.997309 -0.002512 -0.001251 
0.0 0.0 0.0 0.0 -0.0 0.0 -0.78248 99.838348 5.400167 89.140625 0.601764 89.67849 -2.009197 1.130465 -0.022175 -11.565053 -0.416209 -0.368864 18.681801 -0.827706 -2.393189 22.730749 -2.15035 2.670674 -2.574313 -0.385106 0.425239 -33.432907 1.370916 -0.242289 -0.002682 0.000335 -1e-05 0.010952 0.0095 0.034096 0.080212 -0.014719 0.039768 0.060493 0.031035 0.039342 -125.201805 -69.107544 141.665527 34.150143 -58.36935 4.74351 28.018091 0.492747 -0.076395 1.049216 3.104537 9.728262 17.648586 -26.352772 52.494747 -19.504126 -14.419387 29.440332 -0.002091 -8.792995 -0.003219 16.015024 -18.207874 6.150628 -0.601661 -1.79321 -3.881828 -4.803762 -11.060083 -2.943598 0.011761 -20.995333 -0.018918 -5.010966 -25.090294 -4.010254 -0.00182 0.014096 0.001262 -10.650234 -5.693562 -3.559342 10.600913 -17.935816 -3.134872 0.00305 -13.831144 0.01026 -0.516736 -31.187357 -4.0361 -11.618139 -60.12347 7.614937 -14.001651 -7.150012 -2.873931 13.795456 -8.41554 -3.216062 0.370053 -34.231167 0.746486 -0.964509 -17.731913 2.623189 0.008098 -0.015477 -0.0054 -17.369722 -20.114532 -4.213762 21.786283 -1.647934 3.885819 0.000678 -6.340398 -0.007597 -1.708554 -22.586515 -6.191589 7.7e-05 0.001451 0.005876 41.983772 -67.953262 158.73996 42.524166 -48.976044 7.880017 24.220798 0.168033 0.051015 -7.17899 -1.108609 -4.362353 22.246508 -20.403755 49.99675 -16.721262 -16.764454 28.498341 0.00269 -12.71114 -0.009575 16.142391 -17.896654 2.804132 -0.105435 -1.510657 -4.264409 -5.050815 -5.625416 -2.964705 -0.003244 -11.043767 -0.004765 -6.134581 -15.928205 -3.850554 -0.006772 -0.002438 0.006357 -10.30151 -5.681949 -4.33513 11.038298 -11.311713 -2.371878 -1.390073 -14.248401 -6.318661 -0.63991 -26.946434 -3.819316 -3.996451 -50.481266 -3.603507 -13.735771 -7.371948 -3.726074 18.158001 -14.062369 -3.226153 0.000652 -18.816172 0.00026 -0.424384 -8.472095 2.545771 0.001064 0.001521 0.0067 -15.959702 -20.126101 -5.472564 30.462053 -7.196232 1.753486 0.006459 -8.191887 -0.002134 -1.867975 -22.891329 -6.175592 0.000938 0.002207 0.003789 -176.701447 -6.117246 -15.196905 10.020849 -0.000249 0.437816 -81.010963 3.65441 -5.798629 -9.261739 1.482588 1.980131 -0.996758 0.002868 0.000764 4.412879 -4.664432 -3.064086 6.750709 0.014264 -0.068161 -77.921974 -4.556231 -3.32958 -11.378896 0.698238 1.517951 -1.00042 -0.003141 0.00321 
